<?xml version="1.0"?>
<svg xmlns="http://www.w3.org/2000/svg" id="Layer_1" data-name="Layer 1" viewBox="0 0 512 512" width="512" height="512"><path d="M116.767,160.228a6,6,0,0,0,8.2-2.166,128.89,128.89,0,0,1,13.24-18.679,6,6,0,1,0-9.133-7.782A140.776,140.776,0,0,0,114.6,152.024,6,6,0,0,0,116.767,160.228Z"/><path d="M150.738,124.69a5.974,5.974,0,0,0,3.81-1.368,131.217,131.217,0,0,1,18.9-12.961,6,6,0,0,0-5.894-10.452,143.2,143.2,0,0,0-20.631,14.149,6,6,0,0,0,3.818,10.632Z"/><path d="M102.549,205.842a6.152,6.152,0,0,0,1.006.084,6,6,0,0,0,5.909-5,127.832,127.832,0,0,1,5.816-22.131A6,6,0,0,0,104,174.712a139.815,139.815,0,0,0-6.363,24.214A6,6,0,0,0,102.549,205.842Z"/><path d="M192.322,101.24a6,6,0,0,0,1.989-.341,130.7,130.7,0,0,1,22.2-5.665,6,6,0,1,0-1.933-11.842,142.516,142.516,0,0,0-24.242,6.186,6,6,0,0,0,1.989,11.662Z"/><path d="M109.952,246.518a127.292,127.292,0,0,1-2.289-22.763,6,6,0,0,0-6-5.939H101.6a6,6,0,0,0-5.938,6.061,139.344,139.344,0,0,0,2.506,24.915,6,6,0,1,0,11.782-2.274Z"/><path d="M284.417,101.616a117.28,117.28,0,0,1,20.563,9.827,6,6,0,1,0,6.213-10.265A129.254,129.254,0,0,0,288.522,90.34a6,6,0,0,0-4.105,11.276Z"/><path d="M239.361,93.537c3.524.046,7.1.235,10.63.564,4.176.389,8.3.94,12.271,1.638a6,6,0,0,0,2.08-11.819c-4.285-.754-8.74-1.349-13.239-1.768-3.847-.358-7.745-.565-11.586-.614h-.079a6,6,0,0,0-.077,12Z"/><path d="M197.011,344.681a130.455,130.455,0,0,1-21.07-9,6,6,0,0,0-5.668,10.576,142.411,142.411,0,0,0,23.015,9.829,6,6,0,1,0,3.723-11.408Z"/><path d="M373.78,232.749a6,6,0,0,0-6.683,5.227,128.431,128.431,0,0,1-4.794,22.378,6,6,0,1,0,11.461,3.556,140.362,140.362,0,0,0,5.243-24.476A6,6,0,0,0,373.78,232.749Z"/><path d="M364.516,192.453a127.089,127.089,0,0,1,3.339,22.635,6,6,0,0,0,5.986,5.663q.169,0,.342-.009a6,6,0,0,0,5.653-6.328,139.135,139.135,0,0,0-3.656-24.779,6,6,0,1,0-11.664,2.818Z"/><path d="M286.9,341.739a130.611,130.611,0,0,1-21.917,6.657,6,6,0,1,0,2.465,11.745,142.749,142.749,0,0,0,23.935-7.271,6,6,0,0,0-4.483-11.131Z"/><path d="M361.675,278.97a6,6,0,0,0-8.1,2.541,128.274,128.274,0,0,1-12.371,19.261,6,6,0,0,0,9.479,7.36,140.556,140.556,0,0,0,13.529-21.067A6,6,0,0,0,361.675,278.97Z"/><path d="M325.615,317.552a131.3,131.3,0,0,1-18.3,13.8,6,6,0,1,0,6.36,10.175,143.2,143.2,0,0,0,19.973-15.062,6,6,0,1,0-8.037-8.91Z"/><path d="M347.659,142.421a6,6,0,0,0-1.6,8.332,129.2,129.2,0,0,1,11.105,20.027,6,6,0,0,0,10.971-4.862,141.172,141.172,0,0,0-12.141-21.893A6,6,0,0,0,347.659,142.421Z"/><path d="M242.232,351.117a133.988,133.988,0,0,1-16.508-.509c-2.132-.2-4.281-.451-6.389-.751a6,6,0,0,0-1.687,11.881c2.3.326,4.64.6,6.965.819,4.479.415,9.011.626,13.469.626,1.519,0,3.043-.025,4.532-.072a6,6,0,0,0-.382-11.994Z"/><path d="M156.78,323.127A130.855,130.855,0,0,1,140.114,307.4a6,6,0,1,0-8.969,7.971,142.769,142.769,0,0,0,18.2,17.17,6,6,0,1,0,7.437-9.418Z"/><path d="M116.3,268.5a6,6,0,1,0-11.183,4.35,140.667,140.667,0,0,0,11.125,22.426,6,6,0,1,0,10.232-6.269A128.732,128.732,0,0,1,116.3,268.5Z"/><path d="M450.158,39l-20.781-3.855L426,15.062a6.976,6.976,0,0,0-11.537-3.906c-.046.042-.092.084-.137.127L379.672,44.625a8.089,8.089,0,0,0-2.528,6.57v0l2.1,24.289-15.81,15.65a181.081,181.081,0,0,0-125.579-50.5c-100.2,0-181.714,81.517-181.714,181.714,0,71.115,41.069,132.808,100.729,162.637L128.9,472.18a23.333,23.333,0,1,0,44.436,14.256l7.119-22.193h114.8l7.119,22.193a23.333,23.333,0,0,0,44.436-14.256l-27.969-87.189c59.66-29.829,100.729-91.522,100.729-162.637A181.015,181.015,0,0,0,371.826,99.717l15.8-15.645,24.52,2.922a8.192,8.192,0,0,0,.973.058,8.042,8.042,0,0,0,5.615-2.279l35-33.939A6.959,6.959,0,0,0,450.158,39ZM161.913,482.77a11.333,11.333,0,1,1-21.583-6.924l27.525-85.808a180.45,180.45,0,0,0,21.422,7.427Zm22.395-30.527,4.562-14.222h97.975l4.562,14.222Zm8.411-26.222,8.25-25.718a182.547,182.547,0,0,0,73.777,0L283,426.021Zm142.667,49.824A11.334,11.334,0,1,1,313.8,482.77l-27.365-85.3a180.4,180.4,0,0,0,21.423-7.427Zm72.186-253.491c0,93.582-76.134,169.715-169.715,169.715S68.143,315.936,68.143,222.354,144.276,52.64,237.857,52.64A169.121,169.121,0,0,1,354.911,99.576L301.04,152.905a94.12,94.12,0,1,0,8.34,8.629L363.3,108.159A169.055,169.055,0,0,1,407.572,222.354ZM233.6,228.107a6,6,0,0,0,8.485.043L259.3,211.109a24.253,24.253,0,1,1-8.045-8.921l-17.612,17.434A6,6,0,0,0,233.6,228.107ZM259.9,193.635a36.243,36.243,0,1,0,8.184,8.784L300.827,170a82.133,82.133,0,1,1-8.332-8.637ZM389.262,52.05l26.5-25.5,1.84,10.959L390.34,64.505Zm22.463,22.808-13.2-1.573L425.463,46.62l12.917,2.4Z"/></svg>
