<?xml version="1.0" standalone="no"?>
<!DOCTYPE svg PUBLIC "-//W3C//DTD SVG 20010904//EN"
 "http://www.w3.org/TR/2001/REC-SVG-20010904/DTD/svg10.dtd">
<svg version="1.0" xmlns="http://www.w3.org/2000/svg"
 width="1200.000000pt" height="1200.000000pt" viewBox="0 0 1200.000000 1200.000000"
 preserveAspectRatio="xMidYMid meet">
<metadata>
Created by potrace 1.16, written by Peter Selinger 2001-2019
</metadata>
<g transform="translate(0.000000,1200.000000) scale(0.100000,-0.100000)"
fill="#000000" stroke="none">
<path d="M4195 10780 c-116 -14 -276 -82 -385 -163 -147 -110 -243 -244 -296
-412 -27 -84 -27 -323 0 -410 80 -260 289 -482 521 -552 48 -14 95 -18 235
-18 195 0 267 13 370 68 130 69 276 222 333 347 46 102 52 147 51 365 0 203
-1 213 -28 290 -37 109 -83 181 -164 257 -65 61 -185 139 -267 174 -112 47
-257 68 -370 54z"/>
<path d="M1640 9953 c-14 -3 -31 -10 -37 -15 -10 -8 -13 -277 -13 -1284 l0
-1274 -67 -106 c-38 -58 -106 -164 -153 -237 -47 -73 -104 -161 -125 -197 -22
-36 -43 -69 -48 -75 -9 -11 -152 -233 -195 -303 -15 -24 -63 -99 -106 -165
-43 -67 -107 -167 -141 -222 -34 -55 -97 -156 -140 -225 -257 -411 -367 -605
-400 -712 -17 -53 -17 -58 -2 -82 22 -33 71 -58 105 -54 23 3 51 40 192 251
91 136 190 286 220 334 30 48 89 139 131 203 41 63 92 142 112 175 21 33 65
103 99 155 33 52 81 129 106 170 25 41 48 77 52 80 6 5 78 119 172 270 32 52
76 122 98 155 22 33 66 103 98 155 33 52 86 138 119 190 l61 95 303 5 c260 5
309 8 335 22 34 19 45 49 43 122 -2 75 -10 89 -64 108 -42 14 -92 17 -317 18
l-268 0 0 1024 c0 925 -5 1161 -26 1330 -11 82 -49 106 -144 89z"/>
<path d="M2627 9681 c-141 -29 -270 -164 -347 -363 -55 -141 -74 -260 -74
-463 0 -300 54 -534 184 -797 50 -102 132 -238 165 -275 5 -6 21 -26 35 -45
65 -85 173 -193 258 -258 19 -14 39 -30 45 -35 20 -18 178 -111 242 -142 72
-36 173 -74 275 -103 128 -36 196 -76 291 -170 115 -113 238 -278 218 -291
-15 -10 -219 -5 -414 11 -135 12 -185 5 -185 -22 0 -54 199 -157 425 -222 33
-9 74 -21 90 -26 46 -14 143 -31 223 -40 60 -6 86 -15 155 -55 75 -43 164
-106 227 -162 14 -12 36 -31 50 -43 14 -12 52 -43 85 -68 33 -26 71 -57 85
-69 14 -13 28 -23 31 -23 3 0 17 -9 30 -20 168 -139 545 -353 799 -454 25 -10
54 -22 65 -27 11 -4 61 -21 110 -37 79 -27 130 -42 275 -83 70 -20 266 -55
385 -70 135 -16 443 -6 525 18 174 52 275 137 315 268 51 169 -27 355 -193
459 -191 118 -403 177 -872 241 -111 15 -233 35 -365 59 -169 30 -182 33 -405
93 -30 8 -74 20 -97 26 -44 11 -54 21 -29 30 7 3 60 36 117 74 68 44 142 105
215 178 119 118 142 145 227 272 62 92 197 361 197 392 0 6 4 19 9 29 24 45
72 241 91 372 14 99 9 410 -8 482 -23 96 -84 183 -155 219 -152 78 -292 64
-397 -41 -79 -79 -124 -176 -190 -415 -77 -273 -106 -374 -120 -415 -5 -14
-18 -59 -30 -100 -55 -190 -98 -295 -152 -373 -44 -62 -225 -237 -302 -292
-16 -11 -33 -25 -40 -30 -18 -17 -79 -52 -103 -59 -33 -10 -113 33 -218 119
-49 41 -101 84 -115 97 -14 13 -42 38 -63 56 -34 29 -36 32 -15 32 13 1 68 5
123 10 55 5 161 14 235 20 152 12 284 34 335 56 28 12 35 20 35 43 0 25 -5 30
-42 39 -90 23 -165 40 -208 46 -25 4 -65 11 -90 16 -25 6 -83 17 -130 25 -106
19 -267 54 -300 65 -14 5 -59 18 -100 30 -41 11 -82 25 -90 29 -9 5 -30 12
-48 15 -17 4 -34 12 -37 17 -4 5 -12 9 -20 9 -29 0 -219 98 -318 164 -164 109
-287 334 -337 611 -27 152 -41 279 -79 725 -20 222 -58 443 -88 506 -21 46
-75 84 -158 112 -69 23 -183 34 -238 23z"/>
<path d="M10281 7940 c-59 -13 -120 -36 -216 -84 -293 -144 -415 -342 -415
-671 0 -149 24 -310 56 -384 56 -127 220 -281 381 -360 116 -57 164 -66 338
-66 151 0 165 2 240 29 44 15 110 46 146 68 77 45 183 144 225 208 16 25 31
47 34 50 37 36 98 211 115 333 18 119 12 203 -22 327 -65 239 -273 433 -563
527 -84 27 -244 39 -319 23z"/>
<path d="M6240 7325 l0 -135 1560 0 1560 0 0 135 0 135 -1560 0 -1560 0 0
-135z"/>
<path d="M2595 6404 c-77 -11 -162 -44 -205 -79 -132 -106 -245 -443 -311
-920 -22 -162 -38 -272 -53 -355 -14 -78 -23 -117 -61 -295 -15 -71 -60 -240
-82 -310 -57 -181 -118 -358 -143 -410 -5 -11 -19 -42 -31 -70 -33 -78 -97
-204 -140 -276 -36 -61 -169 -233 -234 -304 -15 -16 -48 -52 -73 -80 -25 -27
-107 -113 -182 -190 -204 -208 -252 -296 -235 -434 9 -77 14 -91 33 -91 57 0
385 224 717 489 66 53 127 103 136 111 8 8 49 44 90 80 181 158 398 397 553
610 41 58 79 110 84 115 4 6 19 28 32 50 13 22 27 42 30 45 6 4 121 198 152
254 52 95 149 302 163 346 4 14 11 30 15 35 9 13 95 267 110 326 32 125 42
172 56 253 8 50 17 92 19 96 2 3 9 86 15 185 29 439 -42 699 -215 791 -40 21
-66 27 -130 29 -44 2 -93 1 -110 -1z"/>
<path d="M3400 6298 c-105 -46 -177 -104 -213 -173 -110 -212 16 -513 359
-861 60 -60 138 -134 174 -164 84 -71 120 -102 134 -115 38 -36 242 -186 361
-266 77 -51 142 -96 145 -99 3 -3 19 -16 35 -28 70 -53 139 -130 164 -182 24
-51 26 -64 25 -190 -1 -126 -21 -263 -54 -375 -5 -16 -17 -57 -26 -90 -57
-208 -137 -433 -238 -673 -31 -73 -61 -141 -66 -150 -17 -31 -170 -352 -170
-356 0 -3 -13 -33 -29 -68 -33 -71 -71 -180 -71 -203 0 -8 6 -15 14 -15 32 0
194 150 331 305 39 44 75 85 80 91 33 37 65 75 100 119 22 28 43 52 46 55 3 3
48 61 101 130 232 306 429 630 532 875 9 22 21 48 26 57 6 10 10 23 10 29 0 6
6 25 14 42 38 84 76 272 76 373 0 87 -28 221 -70 334 -33 89 -118 266 -151
311 -10 15 -19 32 -19 38 0 6 -3 11 -8 11 -4 0 -16 17 -27 37 -24 46 -179 256
-249 337 -173 202 -326 351 -571 555 -77 63 -286 211 -300 211 -3 0 -22 11
-43 23 -20 13 -78 38 -127 55 -77 27 -105 32 -180 31 -50 0 -101 -5 -115 -11z"/>
<path d="M9396 5773 c-57 -16 -162 -106 -208 -178 -34 -52 -41 -108 -28 -230
21 -204 82 -398 193 -615 113 -221 247 -401 452 -606 145 -145 170 -167 270
-242 39 -28 75 -55 80 -60 6 -4 28 -19 50 -32 22 -13 42 -27 45 -30 6 -7 359
-220 365 -220 3 0 37 -19 77 -43 101 -59 316 -164 355 -172 28 -6 34 -3 47 24
56 106 -27 215 -314 411 -182 124 -408 376 -549 612 -104 175 -166 329 -241
603 -45 165 -108 340 -158 445 -63 130 -167 247 -271 303 -49 27 -127 41 -165
30z"/>
<path d="M7435 5394 c-172 -60 -245 -151 -245 -302 1 -232 210 -520 581 -798
59 -43 116 -86 129 -94 12 -8 28 -20 34 -25 6 -6 32 -25 58 -43 25 -18 52 -38
60 -44 7 -7 31 -25 54 -41 22 -15 49 -35 60 -45 11 -9 42 -35 69 -56 82 -64
165 -149 186 -188 23 -46 25 -116 4 -218 -23 -112 -64 -268 -90 -345 -32 -93
-78 -222 -90 -250 -7 -16 -21 -52 -31 -80 -10 -27 -24 -61 -31 -75 -7 -14 -13
-28 -13 -32 0 -4 -14 -37 -31 -75 -17 -37 -37 -81 -44 -98 -7 -16 -32 -70 -54
-118 -23 -49 -41 -90 -41 -92 0 -2 -15 -36 -34 -77 -18 -40 -39 -89 -46 -108
-7 -19 -21 -53 -31 -75 -9 -22 -20 -57 -24 -77 -6 -31 -4 -38 8 -38 18 0 146
123 227 219 30 36 62 72 70 81 19 21 44 51 95 115 22 28 42 52 45 55 3 3 37
46 75 95 38 50 72 92 75 95 3 3 17 21 30 40 13 19 27 37 30 40 15 11 160 221
209 303 60 99 155 297 194 402 78 213 93 394 42 521 -58 141 -102 227 -183
351 -162 247 -470 577 -773 828 -13 11 -40 31 -59 45 -19 13 -37 27 -40 30
-10 12 -146 98 -200 127 -116 62 -193 75 -275 47z"/>
</g>
</svg>
